<svg width="434" height="339" viewBox="0 0 434 339" fill="none" xmlns="http://www.w3.org/2000/svg">
<path d="M260.654 1.38256C249.878 4.11686 241.425 9.07025 230.894 18.8216C223.281 25.8675 223.258 25.7466 233.021 30.0293C247.32 36.3009 258.038 43.6951 266.791 53.3227C272.351 59.4388 270.601 58.9006 259.805 51.1755C251.179 45.0018 236.748 37.0291 227.256 33.1954C221.804 30.9935 208.357 30.0696 204.371 31.6267L201.314 32.8183L208.185 36.275C221.332 42.8892 227.566 49.6529 230.327 60.2937C232.598 69.0492 229.339 75.4474 209.085 102.013C181.432 138.279 171.306 152.937 159.615 173.623C141.367 205.905 128.455 244.102 128.66 265.193L128.689 268.074L130.226 265.464C149.714 232.419 150.704 230.94 166.675 210.91C179.88 194.349 211.771 163.529 213.702 165.46C213.918 165.676 211.483 169.11 208.288 173.093C194.404 190.406 181.466 212.824 176.248 228.602C172.947 238.584 170.31 250.929 171.171 252.385C171.519 252.978 178.749 263.912 187.237 276.683L202.667 299.904H85.8407V312.427H351.772L357.874 315.93C394.822 337.142 397.916 338.734 402.581 338.887C410.191 339.137 408.344 337.545 386.987 325.474C375.817 319.159 366.659 313.642 366.633 313.21C366.607 312.778 381.614 312.427 399.982 312.427H433.381V299.904H313.251L305.738 294.392C296.994 287.974 268.952 268.158 263.538 264.569C260.096 262.286 259.408 262.191 254.066 263.265C250.9 263.901 245.921 264.427 243.002 264.436C238.227 264.451 237.931 264.58 240.026 265.74C242.406 267.058 246.574 269.683 272.138 285.982C280.174 291.106 288.392 296.327 290.403 297.584L294.056 299.87L215.38 299.904L208.274 288.858C204.365 282.782 198.053 273.036 194.248 267.202C185.982 254.532 185.412 255.594 199.639 257.166C306.064 268.917 382.181 184.828 353.672 87.0005C337.05 29.966 296.2 -7.63773 260.654 1.38256ZM292.746 27.7153C295.201 30.556 295.046 33.653 292.303 36.5744C286.642 42.6013 277.167 35.7253 281.075 28.4262C283.386 24.106 289.315 23.7462 292.746 27.7153ZM139.007 197.014C138.181 197.8 126.703 205.378 113.5 213.855C100.298 222.331 81.5119 234.5 71.7519 240.895C61.9948 247.291 51.7944 253.905 49.086 255.6C32.9652 265.68 1.24738 286.63 0.651587 287.597C0.142145 288.417 7.41249 288.581 26.541 288.178L53.1385 287.62L61.4019 282.477C117.642 247.469 123.957 243.25 124.161 240.55C124.458 236.627 131.921 216.079 136.658 206.138C141.304 196.39 141.836 194.329 139.007 197.014Z" fill="#BEB565"/>
</svg>
